<svg width="339" height="95" viewBox="0 0 339 95" fill="none" xmlns="http://www.w3.org/2000/svg">
<ellipse cx="107" cy="66" rx="107" ry="29" fill="#C4C4C4"/>
<ellipse cx="107" cy="66" rx="107" ry="29" fill="url(#paint0_linear)"/>
<path d="M63.5234 20.3438H70.4609V22.6875C72.1953 21.625 73.8828 20.8906 75.5234 20.4844C77.1797 20.0625 78.7969 19.8516 80.375 19.8516C82.5781 19.8516 84.6016 20.2031 86.4453 20.9062C88.2891 21.6094 89.8672 22.6719 91.1797 24.0938C92.1953 23.3125 93.1953 22.6562 94.1797 22.125C95.1641 21.5781 96.1484 21.1406 97.1328 20.8125C98.1172 20.4688 99.1172 20.2266 100.133 20.0859C101.148 19.9297 102.195 19.8516 103.273 19.8516C105.539 19.8516 107.594 20.1641 109.438 20.7891C111.281 21.3984 112.852 22.3125 114.148 23.5312C115.461 24.75 116.469 26.2734 117.172 28.1016C117.891 29.9141 118.25 32.0156 118.25 34.4062V48H111.336V35.5312C111.336 34.0156 111.117 32.6641 110.68 31.4766C110.258 30.2734 109.656 29.2656 108.875 28.4531C108.109 27.625 107.188 27 106.109 26.5781C105.047 26.1406 103.875 25.9219 102.594 25.9219C101.891 25.9219 101.172 25.9922 100.438 26.1328C99.7031 26.2578 98.9844 26.4609 98.2812 26.7422C97.5938 27.0234 96.9453 27.3828 96.3359 27.8203C95.7266 28.2422 95.1953 28.7422 94.7422 29.3203V48H87.8281V35.5312C87.8281 34.0156 87.6094 32.6641 87.1719 31.4766C86.75 30.2734 86.1484 29.2656 85.3672 28.4531C84.6016 27.625 83.6719 27 82.5781 26.5781C81.5 26.1406 80.3125 25.9219 79.0156 25.9219C78.2188 25.9219 77.4141 26.0078 76.6016 26.1797C75.8047 26.3359 75.0312 26.5625 74.2812 26.8594C73.5469 27.1562 72.8516 27.5156 72.1953 27.9375C71.5547 28.3594 70.9766 28.8359 70.4609 29.3672V48H63.5234V20.3438ZM131.328 52.6875C132.203 53 133.094 53.2578 134 53.4609C134.906 53.6797 135.781 53.8516 136.625 53.9766C137.484 54.1172 138.305 54.2109 139.086 54.2578C139.867 54.3203 140.562 54.3516 141.172 54.3516C143.016 54.3516 144.617 54.125 145.977 53.6719C147.352 53.2344 148.492 52.6406 149.398 51.8906C150.32 51.1406 151.008 50.2656 151.461 49.2656C151.914 48.2812 152.141 47.2344 152.141 46.125V44.9297C151.547 45.3359 150.852 45.7266 150.055 46.1016C149.258 46.4766 148.383 46.8047 147.43 47.0859C146.477 47.3672 145.461 47.5938 144.383 47.7656C143.32 47.9375 142.219 48.0234 141.078 48.0234C138.812 48.0234 136.719 47.6875 134.797 47.0156C132.875 46.3281 131.211 45.375 129.805 44.1562C128.398 42.9219 127.297 41.4453 126.5 39.7266C125.719 38.0078 125.328 36.1016 125.328 34.0078C125.328 31.8672 125.742 29.9297 126.57 28.1953C127.398 26.4453 128.539 24.9531 129.992 23.7188C131.461 22.4844 133.195 21.5312 135.195 20.8594C137.195 20.1875 139.367 19.8516 141.711 19.8516C142.711 19.8516 143.703 19.9141 144.688 20.0391C145.672 20.1641 146.609 20.3359 147.5 20.5547C148.406 20.7734 149.25 21.0391 150.031 21.3516C150.828 21.6484 151.531 21.9766 152.141 22.3359V20.3438H159.078V44.8359C159.078 47.3516 158.695 49.5781 157.93 51.5156C157.164 53.4531 156.039 55.0781 154.555 56.3906C153.086 57.7188 151.258 58.7188 149.07 59.3906C146.883 60.0781 144.375 60.4219 141.547 60.4219C140.531 60.4219 139.477 60.375 138.383 60.2812C137.289 60.2031 136.188 60.0781 135.078 59.9062C133.984 59.75 132.898 59.5547 131.82 59.3203C130.758 59.1016 129.734 58.8438 128.75 58.5469L131.328 52.6875ZM132.617 33.9375C132.617 35.0469 132.836 36.0938 133.273 37.0781C133.727 38.0469 134.367 38.8984 135.195 39.6328C136.023 40.3516 137.023 40.9219 138.195 41.3438C139.367 41.75 140.688 41.9531 142.156 41.9531C143.109 41.9531 144.055 41.8672 144.992 41.6953C145.945 41.5078 146.852 41.25 147.711 40.9219C148.586 40.5938 149.398 40.1953 150.148 39.7266C150.914 39.2578 151.578 38.7344 152.141 38.1562V29.0391C151.438 28.4766 150.695 28 149.914 27.6094C149.133 27.2188 148.336 26.8984 147.523 26.6484C146.711 26.3984 145.891 26.2188 145.062 26.1094C144.234 25.9844 143.43 25.9219 142.648 25.9219C141.055 25.9219 139.633 26.1328 138.383 26.5547C137.148 26.9766 136.102 27.5547 135.242 28.2891C134.398 29.0078 133.75 29.8516 133.297 30.8203C132.844 31.7891 132.617 32.8281 132.617 33.9375ZM173.727 59.2969H166.789V20.3438H173.727V22.9453C174.336 22.5234 175.055 22.125 175.883 21.75C176.711 21.375 177.602 21.0469 178.555 20.7656C179.508 20.4844 180.492 20.2656 181.508 20.1094C182.523 19.9375 183.539 19.8516 184.555 19.8516C186.898 19.8516 189.047 20.1953 191 20.8828C192.969 21.5703 194.656 22.5391 196.062 23.7891C197.469 25.0391 198.562 26.5391 199.344 28.2891C200.141 30.0234 200.539 31.9453 200.539 34.0547C200.539 36.2578 200.125 38.25 199.297 40.0312C198.469 41.7969 197.32 43.3125 195.852 44.5781C194.398 45.8281 192.664 46.7969 190.648 47.4844C188.648 48.1562 186.477 48.4922 184.133 48.4922C183.133 48.4922 182.141 48.4297 181.156 48.3047C180.188 48.1797 179.25 48.0078 178.344 47.7891C177.453 47.5703 176.609 47.3125 175.812 47.0156C175.031 46.7031 174.336 46.3672 173.727 46.0078V59.2969ZM173.727 39.3047C174.43 39.8672 175.172 40.3438 175.953 40.7344C176.734 41.125 177.531 41.4453 178.344 41.6953C179.156 41.9453 179.977 42.1328 180.805 42.2578C181.633 42.3672 182.438 42.4219 183.219 42.4219C184.812 42.4219 186.227 42.2109 187.461 41.7891C188.711 41.3516 189.758 40.7578 190.602 40.0078C191.461 39.2578 192.117 38.375 192.57 37.3594C193.023 36.3438 193.25 35.2422 193.25 34.0547C193.25 32.9453 193.023 31.8984 192.57 30.9141C192.133 29.9297 191.492 29.0703 190.648 28.3359C189.82 27.5859 188.812 27 187.625 26.5781C186.453 26.1406 185.133 25.9219 183.664 25.9219C182.727 25.9219 181.789 26.0156 180.852 26.2031C179.914 26.375 179.008 26.625 178.133 26.9531C177.273 27.2812 176.461 27.6797 175.695 28.1484C174.945 28.6172 174.289 29.1406 173.727 29.7188V39.3047ZM205.789 34.0781C205.789 32.2031 206.172 30.4141 206.938 28.7109C207.703 26.9922 208.805 25.4766 210.242 24.1641C211.68 22.8516 213.438 21.8047 215.516 21.0234C217.609 20.2422 219.984 19.8516 222.641 19.8516C225.281 19.8516 227.656 20.25 229.766 21.0469C231.891 21.8281 233.688 22.9062 235.156 24.2812C236.641 25.6562 237.773 27.2734 238.555 29.1328C239.352 30.9922 239.75 32.9844 239.75 35.1094C239.75 35.375 239.742 35.6641 239.727 35.9766C239.727 36.2734 239.711 36.5469 239.68 36.7969H213.523C213.82 37.625 214.297 38.3828 214.953 39.0703C215.625 39.7578 216.461 40.3516 217.461 40.8516C218.461 41.3516 219.617 41.7422 220.93 42.0234C222.242 42.2891 223.695 42.4219 225.289 42.4219C226.883 42.4219 228.469 42.2578 230.047 41.9297C231.625 41.5859 233.133 41.1562 234.57 40.6406L236.914 45.9375C236.008 46.3594 235.086 46.7344 234.148 47.0625C233.227 47.375 232.258 47.6406 231.242 47.8594C230.242 48.0625 229.188 48.2188 228.078 48.3281C226.984 48.4375 225.828 48.4922 224.609 48.4922C221.5 48.4922 218.773 48.1172 216.43 47.3672C214.086 46.6172 212.125 45.5938 210.547 44.2969C208.969 43 207.781 41.4766 206.984 39.7266C206.188 37.9766 205.789 36.0938 205.789 34.0781ZM232.391 31.3828C232.141 30.6172 231.75 29.9062 231.219 29.25C230.703 28.5781 230.055 28 229.273 27.5156C228.492 27.0156 227.586 26.625 226.555 26.3438C225.523 26.0625 224.391 25.9219 223.156 25.9219C221.844 25.9219 220.648 26.0703 219.57 26.3672C218.492 26.6641 217.547 27.0625 216.734 27.5625C215.922 28.0625 215.242 28.6406 214.695 29.2969C214.164 29.9531 213.773 30.6484 213.523 31.3828H232.391ZM247.227 20.3438H254.164V24.3281C255.695 23.1875 257.312 22.2031 259.016 21.375C260.719 20.5469 262.414 19.9141 264.102 19.4766L266.141 25.8281C263.469 26.0938 261.117 26.6953 259.086 27.6328C257.07 28.5547 255.43 29.8594 254.164 31.5469V48H247.227V20.3438ZM271.344 9.11719H278.281V32.0859L291.219 20.3438H301.836L287.375 33.2812L302.75 48H292.344L282.055 38.0391L278.281 41.4141V48H271.344V9.11719ZM307.344 9.11719H314.281V32.0859L327.219 20.3438H337.836L323.375 33.2812L338.75 48H328.344L318.055 38.0391L314.281 41.4141V48H307.344V9.11719Z" fill="black"/>
<path d="M63.5234 20.3438H70.4609V22.6875C72.1953 21.625 73.8828 20.8906 75.5234 20.4844C77.1797 20.0625 78.7969 19.8516 80.375 19.8516C82.5781 19.8516 84.6016 20.2031 86.4453 20.9062C88.2891 21.6094 89.8672 22.6719 91.1797 24.0938C92.1953 23.3125 93.1953 22.6562 94.1797 22.125C95.1641 21.5781 96.1484 21.1406 97.1328 20.8125C98.1172 20.4688 99.1172 20.2266 100.133 20.0859C101.148 19.9297 102.195 19.8516 103.273 19.8516C105.539 19.8516 107.594 20.1641 109.438 20.7891C111.281 21.3984 112.852 22.3125 114.148 23.5312C115.461 24.75 116.469 26.2734 117.172 28.1016C117.891 29.9141 118.25 32.0156 118.25 34.4062V48H111.336V35.5312C111.336 34.0156 111.117 32.6641 110.68 31.4766C110.258 30.2734 109.656 29.2656 108.875 28.4531C108.109 27.625 107.188 27 106.109 26.5781C105.047 26.1406 103.875 25.9219 102.594 25.9219C101.891 25.9219 101.172 25.9922 100.438 26.1328C99.7031 26.2578 98.9844 26.4609 98.2812 26.7422C97.5938 27.0234 96.9453 27.3828 96.3359 27.8203C95.7266 28.2422 95.1953 28.7422 94.7422 29.3203V48H87.8281V35.5312C87.8281 34.0156 87.6094 32.6641 87.1719 31.4766C86.75 30.2734 86.1484 29.2656 85.3672 28.4531C84.6016 27.625 83.6719 27 82.5781 26.5781C81.5 26.1406 80.3125 25.9219 79.0156 25.9219C78.2188 25.9219 77.4141 26.0078 76.6016 26.1797C75.8047 26.3359 75.0312 26.5625 74.2812 26.8594C73.5469 27.1562 72.8516 27.5156 72.1953 27.9375C71.5547 28.3594 70.9766 28.8359 70.4609 29.3672V48H63.5234V20.3438ZM131.328 52.6875C132.203 53 133.094 53.2578 134 53.4609C134.906 53.6797 135.781 53.8516 136.625 53.9766C137.484 54.1172 138.305 54.2109 139.086 54.2578C139.867 54.3203 140.562 54.3516 141.172 54.3516C143.016 54.3516 144.617 54.125 145.977 53.6719C147.352 53.2344 148.492 52.6406 149.398 51.8906C150.32 51.1406 151.008 50.2656 151.461 49.2656C151.914 48.2812 152.141 47.2344 152.141 46.125V44.9297C151.547 45.3359 150.852 45.7266 150.055 46.1016C149.258 46.4766 148.383 46.8047 147.43 47.0859C146.477 47.3672 145.461 47.5938 144.383 47.7656C143.32 47.9375 142.219 48.0234 141.078 48.0234C138.812 48.0234 136.719 47.6875 134.797 47.0156C132.875 46.3281 131.211 45.375 129.805 44.1562C128.398 42.9219 127.297 41.4453 126.5 39.7266C125.719 38.0078 125.328 36.1016 125.328 34.0078C125.328 31.8672 125.742 29.9297 126.57 28.1953C127.398 26.4453 128.539 24.9531 129.992 23.7188C131.461 22.4844 133.195 21.5312 135.195 20.8594C137.195 20.1875 139.367 19.8516 141.711 19.8516C142.711 19.8516 143.703 19.9141 144.688 20.0391C145.672 20.1641 146.609 20.3359 147.5 20.5547C148.406 20.7734 149.25 21.0391 150.031 21.3516C150.828 21.6484 151.531 21.9766 152.141 22.3359V20.3438H159.078V44.8359C159.078 47.3516 158.695 49.5781 157.93 51.5156C157.164 53.4531 156.039 55.0781 154.555 56.3906C153.086 57.7188 151.258 58.7188 149.07 59.3906C146.883 60.0781 144.375 60.4219 141.547 60.4219C140.531 60.4219 139.477 60.375 138.383 60.2812C137.289 60.2031 136.188 60.0781 135.078 59.9062C133.984 59.75 132.898 59.5547 131.82 59.3203C130.758 59.1016 129.734 58.8438 128.75 58.5469L131.328 52.6875ZM132.617 33.9375C132.617 35.0469 132.836 36.0938 133.273 37.0781C133.727 38.0469 134.367 38.8984 135.195 39.6328C136.023 40.3516 137.023 40.9219 138.195 41.3438C139.367 41.75 140.688 41.9531 142.156 41.9531C143.109 41.9531 144.055 41.8672 144.992 41.6953C145.945 41.5078 146.852 41.25 147.711 40.9219C148.586 40.5938 149.398 40.1953 150.148 39.7266C150.914 39.2578 151.578 38.7344 152.141 38.1562V29.0391C151.438 28.4766 150.695 28 149.914 27.6094C149.133 27.2188 148.336 26.8984 147.523 26.6484C146.711 26.3984 145.891 26.2188 145.062 26.1094C144.234 25.9844 143.43 25.9219 142.648 25.9219C141.055 25.9219 139.633 26.1328 138.383 26.5547C137.148 26.9766 136.102 27.5547 135.242 28.2891C134.398 29.0078 133.75 29.8516 133.297 30.8203C132.844 31.7891 132.617 32.8281 132.617 33.9375ZM173.727 59.2969H166.789V20.3438H173.727V22.9453C174.336 22.5234 175.055 22.125 175.883 21.75C176.711 21.375 177.602 21.0469 178.555 20.7656C179.508 20.4844 180.492 20.2656 181.508 20.1094C182.523 19.9375 183.539 19.8516 184.555 19.8516C186.898 19.8516 189.047 20.1953 191 20.8828C192.969 21.5703 194.656 22.5391 196.062 23.7891C197.469 25.0391 198.562 26.5391 199.344 28.2891C200.141 30.0234 200.539 31.9453 200.539 34.0547C200.539 36.2578 200.125 38.25 199.297 40.0312C198.469 41.7969 197.32 43.3125 195.852 44.5781C194.398 45.8281 192.664 46.7969 190.648 47.4844C188.648 48.1562 186.477 48.4922 184.133 48.4922C183.133 48.4922 182.141 48.4297 181.156 48.3047C180.188 48.1797 179.25 48.0078 178.344 47.7891C177.453 47.5703 176.609 47.3125 175.812 47.0156C175.031 46.7031 174.336 46.3672 173.727 46.0078V59.2969ZM173.727 39.3047C174.43 39.8672 175.172 40.3438 175.953 40.7344C176.734 41.125 177.531 41.4453 178.344 41.6953C179.156 41.9453 179.977 42.1328 180.805 42.2578C181.633 42.3672 182.438 42.4219 183.219 42.4219C184.812 42.4219 186.227 42.2109 187.461 41.7891C188.711 41.3516 189.758 40.7578 190.602 40.0078C191.461 39.2578 192.117 38.375 192.57 37.3594C193.023 36.3438 193.25 35.2422 193.25 34.0547C193.25 32.9453 193.023 31.8984 192.57 30.9141C192.133 29.9297 191.492 29.0703 190.648 28.3359C189.82 27.5859 188.812 27 187.625 26.5781C186.453 26.1406 185.133 25.9219 183.664 25.9219C182.727 25.9219 181.789 26.0156 180.852 26.2031C179.914 26.375 179.008 26.625 178.133 26.9531C177.273 27.2812 176.461 27.6797 175.695 28.1484C174.945 28.6172 174.289 29.1406 173.727 29.7188V39.3047ZM205.789 34.0781C205.789 32.2031 206.172 30.4141 206.938 28.7109C207.703 26.9922 208.805 25.4766 210.242 24.1641C211.68 22.8516 213.438 21.8047 215.516 21.0234C217.609 20.2422 219.984 19.8516 222.641 19.8516C225.281 19.8516 227.656 20.25 229.766 21.0469C231.891 21.8281 233.688 22.9062 235.156 24.2812C236.641 25.6562 237.773 27.2734 238.555 29.1328C239.352 30.9922 239.75 32.9844 239.75 35.1094C239.75 35.375 239.742 35.6641 239.727 35.9766C239.727 36.2734 239.711 36.5469 239.68 36.7969H213.523C213.82 37.625 214.297 38.3828 214.953 39.0703C215.625 39.7578 216.461 40.3516 217.461 40.8516C218.461 41.3516 219.617 41.7422 220.93 42.0234C222.242 42.2891 223.695 42.4219 225.289 42.4219C226.883 42.4219 228.469 42.2578 230.047 41.9297C231.625 41.5859 233.133 41.1562 234.57 40.6406L236.914 45.9375C236.008 46.3594 235.086 46.7344 234.148 47.0625C233.227 47.375 232.258 47.6406 231.242 47.8594C230.242 48.0625 229.188 48.2188 228.078 48.3281C226.984 48.4375 225.828 48.4922 224.609 48.4922C221.5 48.4922 218.773 48.1172 216.43 47.3672C214.086 46.6172 212.125 45.5938 210.547 44.2969C208.969 43 207.781 41.4766 206.984 39.7266C206.188 37.9766 205.789 36.0938 205.789 34.0781ZM232.391 31.3828C232.141 30.6172 231.75 29.9062 231.219 29.25C230.703 28.5781 230.055 28 229.273 27.5156C228.492 27.0156 227.586 26.625 226.555 26.3438C225.523 26.0625 224.391 25.9219 223.156 25.9219C221.844 25.9219 220.648 26.0703 219.57 26.3672C218.492 26.6641 217.547 27.0625 216.734 27.5625C215.922 28.0625 215.242 28.6406 214.695 29.2969C214.164 29.9531 213.773 30.6484 213.523 31.3828H232.391ZM247.227 20.3438H254.164V24.3281C255.695 23.1875 257.312 22.2031 259.016 21.375C260.719 20.5469 262.414 19.9141 264.102 19.4766L266.141 25.8281C263.469 26.0938 261.117 26.6953 259.086 27.6328C257.07 28.5547 255.43 29.8594 254.164 31.5469V48H247.227V20.3438ZM271.344 9.11719H278.281V32.0859L291.219 20.3438H301.836L287.375 33.2812L302.75 48H292.344L282.055 38.0391L278.281 41.4141V48H271.344V9.11719ZM307.344 9.11719H314.281V32.0859L327.219 20.3438H337.836L323.375 33.2812L338.75 48H328.344L318.055 38.0391L314.281 41.4141V48H307.344V9.11719Z" fill="url(#paint1_linear)"/>
<defs>
<linearGradient id="paint0_linear" x1="214" y1="42.2727" x2="166.896" y2="150.896" gradientUnits="userSpaceOnUse">
<stop stop-color="#F152FF"/>
<stop offset="0.9998" stop-color="#FE111C"/>
<stop offset="0.9999" stop-color="#FF0000"/>
<stop offset="1" stop-color="white"/>
</linearGradient>
<linearGradient id="paint1_linear" x1="337.526" y1="-2.10344" x2="76.1563" y2="116.189" gradientUnits="userSpaceOnUse">
<stop stop-color="#AD00FF"/>
<stop offset="0.979167" stop-color="#0500FF"/>
<stop offset="0.9993" stop-color="#3300FF"/>
<stop offset="0.9994" stop-color="#1400FF"/>
<stop offset="0.9995" stop-color="#287EFF"/>
<stop offset="0.9996" stop-color="#001AFF"/>
</linearGradient>
</defs>
</svg>
